<svg width="456" height="118" viewBox="0 0 456 118" fill="none" xmlns="http://www.w3.org/2000/svg">
<g clip-path="url(#clip0_520_921)">
<path d="M440.074 91.5905H455.015L437.598 115.647C436.544 117.102 434.791 117.972 432.917 117.972L425.974 117.966H420.987L440.078 91.5905H440.074ZM451.288 80.3704H408.64L414.412 86.72C416.272 88.8457 417.691 90.0323 419.261 90.5139H455.797L456 90.2318V84.7903C456 82.3516 453.889 80.3704 451.288 80.3704Z" fill="#F96800"/>
<path d="M42.7314 99.6048H42.3456V98.4182H42.4524C44.1159 98.4182 45.3627 97.8265 46.1962 96.6399C47.0262 95.4532 47.443 93.5924 47.443 91.0539V87.8895C47.443 85.6812 46.8919 83.9339 45.7898 82.6475C44.6876 81.361 43.1653 80.7178 41.2229 80.7178H0V117.8H41.4674C43.434 117.8 44.9976 117.133 46.1583 115.799C47.319 114.464 47.8976 112.558 47.8976 110.089V106.677C47.8976 101.964 46.1755 99.6048 42.7314 99.6048ZM12.9672 89.7159H33.8765C34.2519 89.7159 34.4379 89.9808 34.4379 90.507V94.1152C34.4379 94.6415 34.2485 94.9063 33.8765 94.9063H12.9672V89.7159ZM34.896 108.011C34.896 108.538 34.7065 108.802 34.3346 108.802H12.9672V103.117H34.3346C34.71 103.117 34.896 103.382 34.896 103.908V108.011ZM62.8004 80.7178H49.8332V117.8H87.6085V105.194H62.8038V80.7213L62.8004 80.7178ZM104.647 80.7178L88.2009 117.8H102.256L105.067 110.729H124.113L126.923 117.8H141.857L125.163 80.7178H104.64H104.647ZM108.935 101.039L113.398 89.8156H115.823L120.252 101.039H108.938H108.935ZM183.683 80.5218H147.66C145.811 80.5218 144.375 81.2303 143.355 82.6475C142.336 84.0646 141.826 86.0905 141.826 88.7287V109.79C141.826 112.393 142.336 114.412 143.355 115.847C144.375 117.281 145.807 117.997 147.66 117.997H183.683C185.556 117.997 186.999 117.281 188.005 115.847C189.011 114.412 189.517 112.393 189.517 109.79V102.473H176.55V105.985C176.55 106.216 176.498 106.398 176.391 106.529C176.285 106.66 176.15 106.728 175.988 106.728H155.361C155.196 106.728 155.062 106.663 154.959 106.529C154.852 106.398 154.8 106.216 154.8 105.985V92.5364C154.8 92.3059 154.852 92.1236 154.959 91.9929C155.065 91.8622 155.2 91.7934 155.361 91.7934H175.988C176.154 91.7934 176.288 91.8588 176.391 91.9929C176.498 92.1236 176.55 92.3059 176.55 92.5364V95.9967H189.517V88.7287C189.517 86.0905 189.014 84.0646 188.005 82.6475C186.996 81.2303 185.556 80.5218 183.683 80.5218ZM237.37 80.7178H219.973L207.323 92.6843H204.854V80.7178H191.887V117.8H204.854V105.291H207.358L219.691 117.8H237.58L218.358 99.1611L237.37 80.7178ZM292.283 80.3704H255.355C253.506 80.3704 252.069 81.079 251.05 82.4961C250.03 83.9132 249.521 85.9392 249.521 88.5774V109.635C249.521 112.239 250.03 114.258 251.05 115.689C252.069 117.123 253.502 117.838 255.355 117.838H292.283C294.157 117.838 295.596 117.123 296.605 115.689C297.611 114.254 298.117 112.235 298.117 109.635V88.5774C298.117 85.9426 297.615 83.9132 296.605 82.4961C295.596 81.079 294.157 80.3704 292.283 80.3704ZM285.112 105.831C285.112 106.061 285.061 106.243 284.954 106.374C284.847 106.505 284.713 106.57 284.551 106.57H263.046C262.88 106.57 262.746 106.505 262.643 106.374C262.536 106.243 262.484 106.061 262.484 105.831V92.3851C262.484 92.1546 262.536 91.9723 262.643 91.8416C262.75 91.7109 262.884 91.6421 263.046 91.6421H284.551C284.716 91.6421 284.851 91.7075 284.954 91.8416C285.061 91.9723 285.112 92.1546 285.112 92.3851V105.831ZM341.372 80.5699H300.542V117.646H313.509V108.104H341.372C343.222 108.104 344.651 107.396 345.66 105.978C346.666 104.561 347.172 102.553 347.172 99.9488V88.7287C347.172 86.1249 346.669 84.1162 345.66 82.699C344.651 81.2819 343.225 80.5734 341.372 80.5734V80.5699ZM334.171 96.9804C334.171 97.2109 334.119 97.3932 334.012 97.5239C333.905 97.6546 333.771 97.7199 333.609 97.7199H313.513V90.8991H333.609C333.985 90.8991 334.171 91.164 334.171 91.6903V96.9804ZM394.14 97.3278C393.32 96.0104 392.018 95.2847 390.241 95.154L360.69 92.9285C360.27 92.9285 360.057 92.6327 360.057 92.0376V91.2947C360.057 91.0642 360.105 90.8923 360.198 90.7753C360.291 90.6618 360.408 90.6033 360.549 90.6033H384.162C384.348 90.6033 384.479 90.6515 384.548 90.7512C384.617 90.851 384.655 91.0161 384.655 91.2465V92.9732L395.073 90.9817L395.09 87.7381C395.09 85.3992 394.65 83.5865 393.771 82.3001C392.893 81.0136 391.646 80.3739 390.028 80.3739H354.68C353.017 80.3739 351.729 81.0171 350.816 82.3001C349.903 83.5865 349.445 85.3992 349.445 87.7381V95.4498C349.445 100.131 351.167 102.601 354.612 102.866L384.162 105.039C384.396 105.074 384.562 105.156 384.655 105.287C384.748 105.418 384.796 105.617 384.796 105.879V106.917C384.796 107.378 384.631 107.609 384.303 107.609H360.026C359.723 107.609 359.568 107.396 359.568 106.966V104.778H349.098V110.478C349.098 112.816 349.542 114.629 350.434 115.916C351.322 117.202 352.576 117.842 354.195 117.842H390.141C391.829 117.842 393.12 117.199 394.023 115.916C394.925 114.629 395.376 112.82 395.376 110.478V102.666C395.376 100.427 394.967 98.6452 394.147 97.3278H394.14Z" fill="white"/>
<path d="M209.627 14.4843C209.397 14.2401 209.066 14.1266 208.728 14.1266H195.362C195.024 14.1266 194.69 14.2401 194.463 14.4843C193.647 15.3476 192.985 16.1903 191.883 17.6006C191.714 17.8173 191.628 18.1131 191.628 18.3883V40.481C191.628 40.7562 191.714 41.0486 191.883 41.2653C192.982 42.6755 193.647 43.5182 194.463 44.3816C194.694 44.6258 195.024 44.7393 195.362 44.7393H208.728C209.066 44.7393 209.4 44.6258 209.627 44.3816C210.44 43.5182 211.105 42.6755 212.207 41.2653C212.376 41.0486 212.462 40.7528 212.462 40.481V18.3883C212.462 18.1131 212.376 17.8207 212.207 17.6006C211.112 16.1903 210.444 15.3476 209.627 14.4843ZM204.475 38.1386H199.612V20.7272H204.475V38.1386ZM114.528 0.808313C114.011 0.254533 113.271 0 112.51 0H86.1103C85.3491 0 84.6087 0.251093 84.092 0.801434C82.2701 2.73795 79.3254 6.07095 76.8662 9.22853C76.4874 9.71696 76.3014 10.3774 76.3014 10.9931V70.8014H94.1799V49.9434H104.443V70.8014H122.322V10.9999C122.322 10.3808 122.136 9.7204 121.757 9.23541C119.298 6.07439 116.353 2.74139 114.531 0.808313H114.528ZM104.447 38.1696H94.1834V11.7945H104.447V38.1696ZM64.4467 0.808313C63.9301 0.254533 63.1896 0 62.4284 0H36.0291C35.268 0 34.5275 0.251093 34.0109 0.801434C32.1855 2.73795 29.2407 6.07095 26.7816 9.23197C26.4028 9.7204 26.2168 10.3808 26.2168 10.9965V59.8083C26.2168 60.4274 26.4028 61.0879 26.7816 61.5728C29.2407 64.7339 32.1855 68.0634 34.0074 70.0034C34.524 70.5503 35.2645 70.8048 36.0257 70.8048H62.425C63.1861 70.8048 63.9266 70.5537 64.4432 70.0034C66.2652 68.0669 69.2099 64.7339 71.669 61.5728C72.0479 61.0844 72.2339 60.424 72.2339 59.8083V40.2024H54.3554V59.0103H44.0919V11.7945H54.3554V30.6024H72.2339V10.9999C72.2339 10.3808 72.0479 9.7204 71.669 9.23541C69.2099 6.07439 66.2652 2.74139 64.4432 0.808313H64.4467ZM182.494 0H162.915V70.8048H196.195V57.4453H182.494V0ZM145.859 0H126.279V70.8048H159.56V57.4453H145.856V0H145.859ZM279.926 0.808313V0.801434C279.409 0.254533 278.668 0 277.907 0H241.703V70.8048H277.907C278.668 70.8048 279.409 70.5537 279.926 70.0034C281.747 68.0669 284.692 64.7339 287.151 61.5728C287.53 61.0844 287.716 60.424 287.716 59.8083V10.9999C287.716 10.3808 287.53 9.7204 287.151 9.23541C284.692 6.07439 281.747 2.74139 279.926 0.808313ZM269.841 59.0069H259.584V11.7945H269.841V59.0069ZM427.679 30.8673V0H410.965V26.3166L406.646 31.4554H404.841L400.491 26.3166V0H383.811V30.8673C383.811 31.4692 384.021 32.0539 384.407 32.5217L396.1 46.6414V70.8014H415.356V46.6414L427.083 32.5217C427.472 32.0539 427.679 31.4692 427.679 30.8673ZM341.686 14.498H352.066V70.8048H369.945V14.498H380.326V0H341.689V14.498H341.686ZM215.865 44.7427H223.852V34.6371H232.403V27.5274H223.852V21.2363H233.505V14.1266H215.865V44.7462V44.7427ZM319.977 59.0069H309.71V0H291.832V59.8083C291.832 60.4274 292.018 61.0879 292.397 61.5728C294.856 64.7339 297.801 68.0634 299.623 70.0034C300.139 70.5503 300.88 70.8048 301.641 70.8048H328.04C328.801 70.8048 329.542 70.5537 330.058 70.0034C331.88 68.0669 334.825 64.7339 337.284 61.5728C337.666 61.0844 337.849 60.424 337.849 59.8083V0H319.971V59.0069H319.977Z" fill="white"/>
<path d="M431.295 64.0941C431.199 63.9909 431.078 63.9256 430.934 63.9015L430.944 63.6813H431.374C431.743 63.6813 432.025 63.5816 432.232 63.3787C432.435 63.1757 432.535 62.904 432.535 62.56V61.2186C432.535 60.8127 432.421 60.5031 432.184 60.2795C431.956 60.0594 431.633 59.9493 431.206 59.9493H425.971V66.8424H427.241V64.0769H429.852L431.123 66.8424H432.673L431.602 64.61C431.491 64.3693 431.385 64.1973 431.288 64.0941H431.295ZM427.245 63.0657V60.9709H431.075C431.133 60.9709 431.182 60.9847 431.209 61.0156C431.243 61.0466 431.257 61.0913 431.257 61.1532V62.8799C431.257 62.9487 431.243 62.9969 431.209 63.0278C431.182 63.0519 431.133 63.0657 431.075 63.0657H427.245ZM429.143 56.2036C425.096 56.2036 421.817 59.4712 421.817 63.5025C421.817 67.5337 425.096 70.8014 429.143 70.8014C433.189 70.8014 436.472 67.5337 436.472 63.5025C436.472 59.4712 433.189 56.2036 429.143 56.2036ZM429.143 69.6801C425.719 69.6801 422.947 66.9146 422.947 63.5059C422.947 60.0972 425.719 57.3318 429.143 57.3318C432.566 57.3318 435.339 60.0972 435.339 63.5059C435.339 66.9146 432.563 69.6801 429.143 69.6801Z" fill="white"/>
</g>
<defs>
<clipPath id="clip0_520_921">
<rect width="456" height="118" fill="white"/>
</clipPath>
</defs>
</svg>
